<svg xmlns="http://www.w3.org/2000/svg" xmlns:xlink="http://www.w3.org/1999/xlink" width="1560" height="1560" viewBox="0 0 1560 1560"><defs><clipPath id="b"><rect width="1560" height="1560"/></clipPath></defs><g id="a" clip-path="url(#b)"><g transform="translate(-128.931 -193.396)"><path d="M710.137,0c392.2,0,710.137,317.939,710.137,710.137s-317.94,710.137-710.137,710.137S0,1102.335,0,710.137,317.939,0,710.137,0Z" transform="translate(198.793 263.259)"/><path d="M698.967,0C1085,0,1397.934,312.938,1397.934,698.967S1085,1397.934,698.967,1397.934,0,1085,0,698.967,312.938,0,698.967,0Z" transform="translate(209.964 274.429)" fill="#fff"/><path d="M710.137,1484.884a721.609,721.609,0,0,1-72.607-3.666,712.083,712.083,0,0,1-70.51-10.761c-22.878-4.681-45.775-10.569-68.056-17.5-22.032-6.853-43.983-14.887-65.244-23.88-21.064-8.909-41.95-18.97-62.076-29.9-19.982-10.854-39.681-22.822-58.551-35.571-18.779-12.687-37.173-26.441-54.669-40.881-17.455-14.4-34.422-29.825-50.43-45.833s-31.429-32.975-45.834-50.43c-14.439-17.5-28.194-35.89-40.881-54.669-12.748-18.87-24.716-38.569-35.571-58.551-10.932-20.124-20.993-41.009-29.9-62.076-8.993-21.262-17.027-43.214-23.88-65.244-6.93-22.28-12.817-45.177-17.5-68.056a711.973,711.973,0,0,1-10.761-70.51A721.534,721.534,0,0,1,0,774.747c0-23,1.113-46.211,3.308-68.977,2.164-22.451,5.434-45.028,9.719-67.1,4.232-21.8,9.556-43.645,15.825-64.926,6.2-21.049,13.477-42.058,21.626-62.442,8.073-20.2,17.2-40.265,27.119-59.652,9.849-19.244,20.719-38.272,32.308-56.556,11.529-18.189,24.041-36.072,37.19-53.154,13.109-17.03,27.162-33.666,41.767-49.446l5.006,143.38a14.466,14.466,0,0,0,14.447,13.961c.2,0,.359,0,.514-.009a14.483,14.483,0,0,0,13.952-14.961l-5.82-166.669a14.511,14.511,0,0,0-.637-3.782A712.293,712.293,0,0,1,374.558,148.746l.648,18.561a14.464,14.464,0,0,0,14.446,13.961c.189,0,.357,0,.514-.009A14.483,14.483,0,0,0,404.118,166.3L403,134.283A705.541,705.541,0,0,1,628.8,69.216a720.547,720.547,0,0,1,153.94-.94,711.967,711.967,0,0,1,70.51,10.761c22.878,4.682,45.775,10.569,68.056,17.5,22.03,6.852,43.981,14.886,65.244,23.88,21.066,8.91,41.952,18.971,62.076,29.9,19.981,10.854,39.681,22.822,58.551,35.571,18.778,12.686,37.171,26.44,54.669,40.881,17.455,14.405,34.422,29.826,50.43,45.833s31.429,32.976,45.834,50.43c14.439,17.5,28.194,35.89,40.881,54.669,12.748,18.87,24.716,38.569,35.571,58.551,10.932,20.124,20.993,41.009,29.9,62.076,8.993,21.262,17.027,43.213,23.88,65.244,6.93,22.28,12.817,45.177,17.5,68.056a711.9,711.9,0,0,1,10.761,70.51,720.778,720.778,0,0,1,0,145.215,711.9,711.9,0,0,1-10.761,70.51c-4.682,22.878-10.569,45.775-17.5,68.056-6.852,22.031-14.887,43.982-23.88,65.244-8.911,21.067-18.972,41.953-29.9,62.076-10.854,19.982-22.822,39.681-35.571,58.551-12.687,18.779-26.441,37.172-40.881,54.669-14.4,17.455-29.826,34.422-45.834,50.43s-32.975,31.429-50.43,45.833c-17.5,14.439-35.89,28.194-54.669,40.881-18.87,12.748-38.569,24.716-58.551,35.571-20.126,10.933-41.012,20.994-62.076,29.9-21.261,8.993-43.213,17.027-65.244,23.88-22.281,6.93-45.178,12.817-68.056,17.5a712.083,712.083,0,0,1-70.51,10.761A721.609,721.609,0,0,1,710.137,1484.884Zm229.6-336.493c-.169,0-.343,0-.515.009a14.464,14.464,0,0,0-13.951,14.96l4.038,115.649a14.465,14.465,0,0,0,14.447,13.961c.2,0,.361,0,.514-.009A14.483,14.483,0,0,0,958.224,1278l-4.039-115.649a14.465,14.465,0,0,0-14.446-13.96Zm-647.905-91.857c-.171,0-.343,0-.513.009a14.464,14.464,0,0,0-13.951,14.961l4.038,115.649a14.463,14.463,0,0,0,14.445,13.96c.2,0,.36,0,.516-.009a14.465,14.465,0,0,0,13.952-14.96L306.281,1070.5a14.466,14.466,0,0,0-14.448-13.961Zm982.973-133.089c-.173,0-.346,0-.513.009a14.464,14.464,0,0,0-13.951,14.961l5.818,166.669a14.467,14.467,0,0,0,14.449,13.961c.189,0,.357,0,.514-.009a14.481,14.481,0,0,0,13.951-14.961l-5.819-166.669a14.466,14.466,0,0,0-14.448-13.961Zm-225.824-78.956c-.17,0-.343,0-.513.009a14.465,14.465,0,0,0-13.951,14.961l4.038,115.649A14.466,14.466,0,0,0,1053,989.069c.191,0,.359,0,.513-.009a14.465,14.465,0,0,0,13.951-14.961L1063.43,858.45a14.466,14.466,0,0,0-14.448-13.961ZM100.747,753.3c-.171,0-.343,0-.513.009a14.483,14.483,0,0,0-13.952,14.961l5.82,166.67A14.463,14.463,0,0,0,106.548,948.9c.189,0,.357,0,.514-.009a14.483,14.483,0,0,0,13.952-14.961l-5.82-166.67A14.465,14.465,0,0,0,100.747,753.3Zm1125.3-153.382c-.171,0-.343,0-.513.009a14.464,14.464,0,0,0-13.951,14.961l4.038,115.649a14.462,14.462,0,0,0,14.445,13.96c.2,0,.36,0,.516-.009a14.464,14.464,0,0,0,13.951-14.96l-4.038-115.65a14.466,14.466,0,0,0-14.448-13.96ZM348.587,487.521c-.17,0-.343,0-.513.009a14.465,14.465,0,0,0-13.951,14.961l4.038,115.649A14.465,14.465,0,0,0,352.608,632.1c.2,0,.359,0,.514-.009a14.483,14.483,0,0,0,13.952-14.961l-4.039-115.649a14.466,14.466,0,0,0-14.448-13.961ZM552.572,250.448c-.171,0-.343,0-.513.009a14.483,14.483,0,0,0-13.951,14.961l4.039,115.649a14.464,14.464,0,0,0,14.446,13.961c.2,0,.359,0,.514-.009a14.483,14.483,0,0,0,13.952-14.961L567.02,264.409a14.466,14.466,0,0,0-14.448-13.961Z" transform="translate(198.793 198.648)"/></g><g transform="translate(-40.007 97.589)"><g transform="translate(863.092 674.391) rotate(5)"><path d="M23.408,39.611A27.876,27.876,0,0,1,14.3,37.934a24.538,24.538,0,0,1-7.665-4.465A18.03,18.03,0,0,1,0,19.846,18.027,18.027,0,0,1,6.632,6.223,24.538,24.538,0,0,1,14.3,1.758,27.983,27.983,0,0,1,23.952.075H86.514c1.618,0,3.433-.016,5.354-.034C94.065.022,96.555,0,99.1,0c7.146,0,17.609.16,25.9,1.545a36.134,36.134,0,0,1,9.026,2.483,5.662,5.662,0,0,1,2.5,1.733.66.66,0,0,1,0,.084A18.03,18.03,0,0,1,129.9,19.467a24.5,24.5,0,0,1-7.665,4.465,27.981,27.981,0,0,1-9.653,1.683h-7.33v1.067Z" transform="translate(7.33 7.33)" fill="#fff"/><path d="M30.28,39.592l87.346-13.8,1.136-.18h1.151c7.22,0,13.542-3.659,15.77-8.582-3.9-1.086-12.139-2.372-29.254-2.372l-7.167.041-5.418.034H31.281c-9.01,0-16.622,5.7-16.622,12.441,0,6.491,7.055,12.015,15.621,12.416m1,14.683C14.005,54.274,0,42.142,0,27.175S14.007.075,31.281.075H93.844C97.3.075,101.66,0,106.429,0c19.105,0,44.765,1.2,44.765,13.173,0,14.967-14.005,27.1-31.281,27.1Z" transform="translate(0 0)"/></g><g transform="translate(294.358 72.656)"><path d="M978.729,571.039s209.847,148.6,324.073,38.81,31.655-332.384-159.636-363.306C1059.374,233,860.924,220.091,860.924,220.091s25.434,247.618-74.034,296.31c-28.27,13.838-76.641,24.393-121.129,74.8-27.886,31.6-54.329,79.339-72.969,153.948-48.043,192.29-251.863,92.325-251.863,92.325s71.311,96.977,144.263,152.485,207.34-44.812,217.962-47.294" transform="translate(-335.026 -212.213)" fill="#fff"/><path d="M541.029,1016.492c-21.058,0-41.2-5.113-58.4-18.2C409.678,942.783,339.84,848.31,336.9,844.315l9.133-10.923c.954.469,96.631,46.477,168.737,12.927,35.808-16.662,60.3-50.457,72.788-100.448,16.767-67.116,41.861-119.946,74.585-157.021,36.047-40.841,74.771-56.437,103.044-67.824,7.457-3,14.5-5.84,20.357-8.706,93.791-45.913,70.215-286.553,69.966-288.978l-.885-8.626,8.652.563c1.988.129,199.761,13.089,282.935,26.532,50.513,8.165,96.881,30.154,134.093,63.586a255.226,255.226,0,0,1,73.348,113.492c23.546,75.4,7.135,149.7-43.894,198.747-27.382,26.318-62.236,40.546-103.6,42.291-32.555,1.378-69.151-4.983-108.782-18.894-66.94-23.5-118.834-59.968-121.011-61.509a7.33,7.33,0,0,1,8.472-11.965c.519.366,52.621,36.959,117.678,59.741,85.61,29.98,151.918,23.173,197.079-20.234,46.937-45.112,61.912-113.826,40.061-183.809-21.514-68.9-84.245-148.945-195.787-166.976-72.654-11.742-234.209-23.162-273.046-25.8C872.31,250,875.134,300,870.384,353.14,862.078,446.1,835.7,504.086,791.989,525.484c-6.331,3.1-13.616,6.032-21.325,9.137-28.415,11.445-63.779,25.686-97.531,63.926-31.154,35.3-55.16,86.06-71.352,150.874-13.623,54.522-40.836,91.6-80.885,110.213-55.193,25.648-120.354,9.77-155.625-2.627,25.2,31.582,75.618,91.1,126.237,129.614,56.945,43.328,157.373-16.949,195.179-39.642,10.486-6.293,13.934-8.315,16.676-8.955a7.329,7.329,0,0,1,3.6,14.206c-1.6.638-7.262,4.033-12.736,7.318C664.741,977.252,599.359,1016.492,541.029,1016.492Z" transform="translate(-336.902 -214.717)"/></g><g transform="matrix(-0.891, -0.454, 0.454, -0.891, 854.557, 728.906)"><path d="M139.115,40.454h0c-3.521,0-6.959-.022-9.99-.043-2.633-.018-5.119-.034-7.327-.034H35.713a56.879,56.879,0,0,1-14.841-1.909,41.859,41.859,0,0,1-11.647-5,23.764,23.764,0,0,1-7.06-6.616A12.021,12.021,0,0,1,0,20.187,12.02,12.02,0,0,1,2.165,13.52,23.764,23.764,0,0,1,9.225,6.9a41.816,41.816,0,0,1,11.647-5A56.728,56.728,0,0,1,35.3,0L156.816,14.168l.424.05h.425a56.878,56.878,0,0,1,14.841,1.909,41.859,41.859,0,0,1,11.647,5,23.764,23.764,0,0,1,7.06,6.616,12.209,12.209,0,0,1,2.155,6.174,14.033,14.033,0,0,1-4.931,2.357,74.535,74.535,0,0,1-13.583,2.649C163.21,40.294,148.882,40.454,139.115,40.454Z" transform="translate(7.33 7.331)" fill="#fff"/><path d="M42.239,14.665c-17.131.248-27.58,8.389-27.58,12.853,0,4.534,10.776,12.859,28.383,12.859h86.083l7.372.034,9.943.043c25.923,0,38.5-1.571,44.6-3.04-4.068-4.143-13.255-8.538-26.045-8.538h-.852l-.846-.1L42.239,14.665M43.042,0,164.994,14.218c23.771,0,43.042,12.321,43.042,27.518,0,12.163-35.305,13.377-61.594,13.377-6.563,0-12.567-.076-17.315-.076H43.042C19.271,55.038,0,42.717,0,27.518S19.271,0,43.042,0Z" transform="translate(0 0)"/></g><path d="M11.112,62.656A31.409,31.409,0,1,1,40.474,82.851,31.438,31.438,0,0,1,11.112,62.656ZM148.2,51.72a31.41,31.41,0,1,1,29.362,20.195A31.439,31.439,0,0,1,148.2,51.72Z" transform="translate(1026.786 213.324)"/><g transform="translate(750.356 741.792)"><path d="M732.866,676.178s58.419,80.453,66.768,138.024S705.1,939.121,686.119,940.022c0,0-27.168-27.565-32.794-62.132,16.81-16.1,40.434-34.858,56.694-47.339,4.986-3.828-6.968-15.615-12.916-28.77a79.17,79.17,0,0,1-6.2-27.917" transform="translate(-645.471 -668.848)" fill="#fff"/><path d="M685.693,949.828l-2.3-2.332c-1.177-1.193-28.876-29.648-34.81-66.1l-.619-3.807,2.784-2.665c16.072-15.389,38.291-33.2,54.922-46.026-1.019-1.984-2.888-4.879-4.36-7.16a113.631,113.631,0,0,1-8.392-14.609l-.072-.163a86.217,86.217,0,0,1-6.777-30.5,7.33,7.33,0,0,1,14.651-.544,71.615,71.615,0,0,0,5.592,25.249,103.091,103.091,0,0,0,7.317,12.62c5.282,8.186,11.853,18.374,3.345,24.9-15.6,11.977-37.085,29.047-53.215,44.1,5.157,24.065,21.2,44.338,27.5,51.577,13.356-4.263,54.25-28.735,81.683-61.994,11.591-14.052,24.8-34.968,21.929-54.8-8-55.142-64.872-133.979-65.446-134.768a7.329,7.329,0,1,1,11.861-8.614c2.429,3.345,59.581,82.592,68.091,141.278,2.927,20.183-5.528,42.465-25.129,66.229-29.536,35.811-79.543,67.219-95.294,67.965Z" transform="translate(-647.967 -671.177)"/></g><g transform="translate(749.609 971.546) rotate(4.992)"><path d="M85.535,49.513h0c-2.2,0-4.275-.025-6.277-.048-1.684-.021-3.275-.04-4.7-.04H19.964c-5.107,0-9.98-2.419-13.72-6.809A25.457,25.457,0,0,1,1.711,34.7a30.034,30.034,0,0,1,0-19.983A25.428,25.428,0,0,1,6.245,6.795,18.194,18.194,0,0,1,19.259,0l76.5,16.382.759.163h.775c5.107,0,9.98,2.419,13.72,6.809a25.457,25.457,0,0,1,4.534,7.919,29.371,29.371,0,0,1,1.711,9.992,3.573,3.573,0,0,1-1.334,2.963c-.919.828-2.8,2.033-6.567,3.074C102.188,49.283,92.328,49.513,85.535,49.513Z" transform="translate(7.33 7.344)" fill="#fff"/><path d="M26.112,14.738c-6.32.852-11.453,8.432-11.453,17.311,0,9.426,5.786,17.39,12.635,17.39H81.881l4.791.04,6.191.048c15.747,0,21.99-1.712,24.326-2.747-.688-8.6-6.161-15.562-12.562-15.562h-1.552l-1.517-.325L26.112,14.738M27.294,0l77.332,16.559c15.074,0,27.294,14.348,27.294,32.049,0,14.164-22.388,15.578-39.058,15.578-4.162,0-7.969-.088-10.98-.088H27.294C12.22,64.1,0,49.749,0,32.049S12.22,0,27.294,0Z" transform="translate(0 0)"/></g><g transform="translate(890.396 554.455)"><path d="M775.67,548.382s101.383,91.971,48.587,138.647c-25.613-3.955-59.423-58.4-75.759-82.927" transform="translate(-741.168 -541.053)" fill="#fff"/><path d="M828.865,697.126l-3.4-.525c-24.673-3.81-51.284-41.4-76.427-79.581-1.545-2.345-2.988-4.537-4.313-6.529a7.329,7.329,0,1,1,12.2-8.126c1.34,2.011,2.8,4.223,4.357,6.592,14.186,21.539,42.9,65.144,63.153,72.313a35.158,35.158,0,0,0,10.052-25.142c.279-43.516-60.8-99.429-61.415-99.988a7.33,7.33,0,1,1,9.849-10.858c2.718,2.466,66.546,60.944,66.225,110.94-.1,15.331-6.056,28.326-17.708,38.627Z" transform="translate(-743.498 -543.383)"/></g><path d="M709.231,817.251A7.332,7.332,0,0,1,703,806.066q3.241-5.242,6.434-10.338c23.815-38.134,44.384-71.068,48.68-129.218C763.049,599.677,796,554.191,822.772,527.8c28.961-28.544,56.532-41.22,57.691-41.747a7.33,7.33,0,0,1,6.06,13.349h0c-.265.12-26.722,12.352-53.854,39.225-36.092,35.752-56.258,79.141-59.934,128.96-4.562,61.762-27.054,97.777-50.866,135.9q-3.171,5.077-6.4,10.279A7.32,7.32,0,0,1,709.231,817.251Z" transform="translate(127.52 -15.943)"/><g transform="matrix(0.94, 0.342, -0.342, 0.94, 675.973, 604.027)"><path d="M0,0H33.558V222.319H0Z" transform="translate(175.212 428.334)" fill="#fff"/><g transform="translate(135.724 619.553)"><path d="M17.591,0H80.286A17.592,17.592,0,0,1,97.877,17.591h0V36.084a5.864,5.864,0,0,1-5.864,5.864H5.864A5.864,5.864,0,0,1,0,36.084V17.591A17.59,17.59,0,0,1,17.591,0Z" transform="translate(7.328 7.33)" fill="#fff"/><path d="M103.855,55.812a13.145,13.145,0,0,1-4.514.794H13.193A13.21,13.21,0,0,1,0,43.413V24.921A24.906,24.906,0,0,1,24.922,0H87.617a24.92,24.92,0,0,1,24.921,24.919V43.412A13.243,13.243,0,0,1,103.855,55.812Zm-89.2-13.865H97.875V24.919A10.26,10.26,0,0,0,87.615,14.658h-62.7A10.246,10.246,0,0,0,14.658,24.921Z" transform="translate(0 0)"/></g><g transform="translate(151.103 40.549)"><path d="M13.193,0H53.921A13.192,13.192,0,0,1,67.114,13.193v381.9a13.192,13.192,0,0,1-13.193,13.193H13.193A13.192,13.192,0,0,1,0,395.09V13.193A13.192,13.192,0,0,1,13.193,0Z" transform="translate(7.33 7.33)" fill="#fff"/><path d="M68.27,421.708a20.452,20.452,0,0,1-7.02,1.234H20.523A20.523,20.523,0,0,1,0,402.418V20.523A20.51,20.51,0,0,1,20.521,0H61.249A20.548,20.548,0,0,1,81.774,20.523v381.9A20.586,20.586,0,0,1,68.27,421.708ZM18.518,15.01a5.886,5.886,0,0,0-3.858,5.513v381.9a5.866,5.866,0,0,0,5.865,5.864H61.251a5.853,5.853,0,0,0,5.864-5.864V20.523a5.873,5.873,0,0,0-5.865-5.864H20.521A5.852,5.852,0,0,0,18.518,15.01Z" transform="translate(0 0)"/></g><g transform="translate(135.723 0)"><path d="M7.33,0H90.547a7.33,7.33,0,0,1,7.33,7.33V38.812a7.33,7.33,0,0,1-7.33,7.33H7.33A7.33,7.33,0,0,1,0,38.812V7.33A7.33,7.33,0,0,1,7.33,0Z" transform="translate(7.33 7.33)" fill="#fff"/><path d="M102.89,59.918a14.632,14.632,0,0,1-5.013.882H14.659A14.66,14.66,0,0,1,0,46.14V14.659A14.653,14.653,0,0,1,14.659,0H97.877a14.66,14.66,0,0,1,14.659,14.659V46.141A14.708,14.708,0,0,1,102.89,59.918ZM14.659,14.659V46.141H97.871l.006-31.482Z" transform="translate(0 0)"/></g><g transform="translate(0 306.55)"><path d="M51.614,67.827c-10.533,0-25.85-.309-37.226-2.989C9.177,63.611,5.279,62.025,2.8,60.126S0,56.541,0,55.135a33.826,33.826,0,0,1,33.86-33.86h.663l.652-.119L151.2,0a33.848,33.848,0,0,1,23.311,57.8,33.734,33.734,0,0,1-23.943,9.917H68.185c-2.126,0-4.512.025-7.038.05C58.251,67.795,54.969,67.827,51.614,67.827Z" transform="translate(7.33 7.335)" fill="#fff"/><path d="M159.076,14.686,43.819,35.7l-1.3.237H41.19c-14.628,0-26.53,11.9-26.952,25.394.931,1.085,7.462,6.5,44.706,6.5L68.4,67.77l7.113-.051h82.379a26.53,26.53,0,0,0,1.183-53.033M157.893,0a41.19,41.19,0,1,1,0,82.379H75.514c-4.544,0-10.291.113-16.571.113C33.787,82.492,0,80.676,0,62.47a41.19,41.19,0,0,1,41.19-41.19Z" transform="translate(0 0)"/></g></g><g transform="translate(615.281 733.84)"><path d="M692.979,688.616c9.383,28.693-5.673,106.976-11.76,116.781-24.7,39.79-45.426,75-65.59,84.719,0,0-34.8-5.14-51.751-33.216,20.146-36.432,7.262-53.7,28.44-92.818,2.445-.951-5.443-3.809-16.98-28.864-13.844-30.066-14.516-64.464-14.516-64.464" transform="translate(-553.495 -663.422)" fill="#fff"/><path d="M619.115,900.025l-2.227-.33c-1.561-.23-38.429-6-56.956-36.679l-2.19-3.628,2.051-3.709c9.312-16.839,11.068-29.276,12.928-42.442,1.925-13.626,3.911-27.69,13.63-46.794-3.3-4.089-8.772-11.569-15.341-25.832-14.321-31.1-15.158-65.921-15.185-67.387a7.33,7.33,0,1,1,14.656-.287c.007.325.837,33.294,13.844,61.541,6.857,14.891,12.192,21.287,14.755,24.362,1.846,2.214,4.144,4.968,3.1,9.021a7.662,7.662,0,0,1-1.715,3.212c-9.521,17.982-11.323,30.733-13.227,44.214-1.827,12.934-3.712,26.281-12.519,43.542,13.026,18.18,35.055,24.358,42.1,25.922,16.388-9.587,35.373-40.278,55.428-72.694l5.079-8.2c5.311-8.681,19.638-84.288,11.019-110.638a7.33,7.33,0,1,1,13.934-4.558c10.272,31.407-5.588,111.79-12.5,122.925l-5.069,8.183c-23.953,38.718-42.874,69.3-63.567,79.273Z" transform="translate(-555.824 -665.753)"/></g><g transform="translate(724.388 505.675)"><path d="M709.91,515.108s18.136,140.686-14.97,149.8S635.255,522.3,635.255,522.3" transform="translate(-627.922 -507.777)" fill="#fff"/><path d="M694.409,674.959a20.111,20.111,0,0,1-10.8-3.325c-13.576-8.595-26.264-35.229-38.785-81.428-8.916-32.9-14.4-64-14.456-64.309a7.33,7.33,0,1,1,14.439-2.53c8.107,46.251,27.939,124.042,46.643,135.881,2.19,1.385,3.373,1.06,3.877.921,2.543-.7,15.2-7.418,14.517-71.061a695,695,0,0,0-4.871-70.737,7.33,7.33,0,0,1,14.539-1.873,696.5,696.5,0,0,1,4.99,72.339c.582,53.4-7.453,80.555-25.284,85.465A17.892,17.892,0,0,1,694.409,674.959Z" transform="translate(-630.253 -510.107)"/></g></g></g></svg>