<svg xmlns="http://www.w3.org/2000/svg" xmlns:xlink="http://www.w3.org/1999/xlink" width="1560" height="1560" viewBox="0 0 1560 1560"><defs><clipPath id="b"><rect width="1560" height="1560"/></clipPath></defs><g id="a" clip-path="url(#b)"><path d="M581.207,0C902.2,0,1162.413,260.215,1162.413,581.207S902.2,1162.413,581.207,1162.413,0,902.2,0,581.207,260.215,0,581.207,0Z" transform="translate(198.793 263.259)"/><path d="M572.065,0c315.942,0,572.065,256.122,572.065,572.065s-256.122,572.065-572.065,572.065S0,888.007,0,572.065,256.122,0,572.065,0Z" transform="translate(207.935 272.401)" fill="#fff"/><path d="M581.207,1227.023a590.591,590.591,0,0,1-59.425-3,582.763,582.763,0,0,1-57.708-8.807c-18.724-3.831-37.464-8.65-55.7-14.322-18.032-5.609-36-12.184-53.4-19.544-17.24-7.292-34.334-15.526-50.806-24.474-16.354-8.884-32.476-18.679-47.921-29.112-15.37-10.384-30.424-21.641-44.743-33.458-14.286-11.79-28.172-24.41-41.274-37.512s-25.723-26.988-37.512-41.274c-11.818-14.32-23.075-29.374-33.458-44.743-10.434-15.444-20.229-31.567-29.112-47.921-8.947-16.47-17.182-33.564-24.474-50.806-7.36-17.4-13.936-35.368-19.544-53.4-5.672-18.235-10.49-36.975-14.322-55.7A582.7,582.7,0,0,1,3,705.242a590.533,590.533,0,0,1-3-59.425C0,626.99.911,608,2.707,589.363c1.771-18.375,4.448-36.853,7.955-54.921C14.125,516.6,18.483,498.72,23.614,481.3c5.075-17.228,11.03-34.422,17.7-51.105,6.607-16.529,14.075-32.955,22.2-48.821,8.061-15.75,16.957-31.323,26.442-46.288,9.436-14.887,19.676-29.523,30.438-43.5,10.729-13.938,22.231-27.553,34.184-40.469l4.1,117.348A11.839,11.839,0,0,0,170.5,379.891c.16,0,.294,0,.42-.007a11.853,11.853,0,0,0,11.419-12.245L177.571,231.23a11.876,11.876,0,0,0-.521-3.1,582.97,582.97,0,0,1,129.5-94.664l.53,15.191a11.838,11.838,0,0,0,11.823,11.426c.155,0,.292,0,.42-.007a11.853,11.853,0,0,0,11.419-12.244l-.915-26.2A577.444,577.444,0,0,1,514.64,68.38a589.726,589.726,0,0,1,125.991-.769,582.7,582.7,0,0,1,57.708,8.807c18.725,3.832,37.465,8.65,55.7,14.322,18.03,5.608,36,12.184,53.4,19.544,17.242,7.293,34.335,15.527,50.806,24.474,16.354,8.884,32.476,18.679,47.921,29.112,15.369,10.383,30.423,21.64,44.743,33.458,14.286,11.79,28.172,24.411,41.274,37.512s25.723,26.989,37.512,41.274c11.818,14.32,23.075,29.374,33.458,44.743,10.434,15.444,20.229,31.567,29.112,47.921,8.947,16.47,17.182,33.564,24.474,50.806,7.36,17.4,13.936,35.368,19.544,53.4,5.672,18.235,10.49,36.975,14.322,55.7a582.678,582.678,0,0,1,8.807,57.708,589.913,589.913,0,0,1,0,118.85,582.68,582.68,0,0,1-8.807,57.708c-3.832,18.725-8.65,37.465-14.322,55.7-5.608,18.031-12.184,36-19.544,53.4-7.293,17.242-15.527,34.336-24.474,50.806-8.884,16.354-18.679,32.476-29.112,47.921-10.383,15.369-21.641,30.423-33.458,44.743-11.789,14.286-24.41,28.172-37.512,41.274s-26.988,25.722-41.274,37.512c-14.32,11.818-29.373,23.075-44.743,33.458-15.444,10.434-31.567,20.229-47.921,29.112-16.472,8.948-33.566,17.182-50.806,24.474-17.4,7.36-35.367,13.936-53.4,19.544-18.236,5.672-36.976,10.49-55.7,14.322a582.763,582.763,0,0,1-57.708,8.807A590.591,590.591,0,0,1,581.207,1227.023Zm187.916-275.4c-.139,0-.28,0-.421.007a11.838,11.838,0,0,0-11.418,12.244l3.3,94.652a11.839,11.839,0,0,0,11.824,11.426c.162,0,.3,0,.42-.007a11.854,11.854,0,0,0,11.419-12.245l-3.306-94.652a11.838,11.838,0,0,0-11.823-11.426Zm-530.273-75.18c-.14,0-.281,0-.42.007A11.838,11.838,0,0,0,227.011,888.7l3.3,94.652a11.837,11.837,0,0,0,11.822,11.425c.161,0,.295,0,.422-.007a11.839,11.839,0,0,0,11.419-12.244l-3.306-94.652a11.839,11.839,0,0,0-11.825-11.427Zm804.507-108.926c-.142,0-.283,0-.42.007a11.838,11.838,0,0,0-11.418,12.244l4.762,136.409A11.841,11.841,0,0,0,1048.1,927.6c.155,0,.292,0,.42-.007a11.852,11.852,0,0,0,11.418-12.244l-4.763-136.409a11.84,11.84,0,0,0-11.825-11.427ZM858.532,702.9c-.139,0-.281,0-.42.007a11.839,11.839,0,0,0-11.418,12.245L850,809.8a11.84,11.84,0,0,0,11.824,11.426c.156,0,.294,0,.42-.007a11.839,11.839,0,0,0,11.418-12.245l-3.3-94.652A11.839,11.839,0,0,0,858.532,702.9ZM82.456,628.261c-.14,0-.281,0-.42.007a11.853,11.853,0,0,0-11.419,12.244L75.38,776.922A11.837,11.837,0,0,0,87.2,788.349c.155,0,.292,0,.42-.007A11.853,11.853,0,0,0,99.043,776.1L94.28,639.688a11.839,11.839,0,0,0-11.824-11.426Zm920.993-125.535c-.14,0-.281,0-.42.007a11.838,11.838,0,0,0-11.418,12.244l3.3,94.652a11.836,11.836,0,0,0,11.822,11.425c.161,0,.295,0,.422-.007a11.838,11.838,0,0,0,11.418-12.244l-3.3-94.653a11.84,11.84,0,0,0-11.825-11.426ZM285.3,410.738c-.139,0-.281,0-.42.007a11.839,11.839,0,0,0-11.418,12.245l3.3,94.652a11.839,11.839,0,0,0,11.824,11.426c.16,0,.294,0,.42-.007a11.854,11.854,0,0,0,11.419-12.245l-3.306-94.652A11.84,11.84,0,0,0,285.3,410.738Zm601.628-6.51c-.14,0-.281,0-.42.007a11.853,11.853,0,0,0-11.418,12.245l3.306,94.652a11.838,11.838,0,0,0,11.823,11.426c.16,0,.294,0,.42-.007a11.853,11.853,0,0,0,11.419-12.245l-3.306-94.652a11.839,11.839,0,0,0-11.825-11.427Z" transform="translate(198.793 198.648)"/><g transform="translate(0 61.672)"><g transform="translate(854.352 665.144) rotate(5)"><path d="M23.048,39a27.448,27.448,0,0,1-8.971-1.651,24.161,24.161,0,0,1-7.548-4.4A17.752,17.752,0,0,1,0,19.541,17.75,17.75,0,0,1,6.53,6.127a24.161,24.161,0,0,1,7.548-4.4A27.553,27.553,0,0,1,23.584.074h61.6c1.594,0,3.38-.016,5.271-.033C92.62.022,95.071,0,97.576,0c7.037,0,17.338.157,25.5,1.521a35.579,35.579,0,0,1,8.887,2.445,5.575,5.575,0,0,1,2.464,1.706.649.649,0,0,1,0,.082,17.752,17.752,0,0,1-6.53,13.413,24.122,24.122,0,0,1-7.548,4.4,27.551,27.551,0,0,1-9.5,1.657h-7.217v1.051Z" transform="translate(7.217 7.217)" fill="#fff"/><path d="M29.815,38.983l86-13.587,1.119-.178h1.133c7.109,0,13.334-3.6,15.528-8.45-3.842-1.07-11.953-2.335-28.8-2.335l-7.057.04-5.335.033H30.8c-8.871,0-16.367,5.609-16.367,12.25,0,6.391,6.947,11.83,15.381,12.226M30.8,53.44C13.79,53.44,0,41.495,0,26.758S13.792.074,30.8.074H92.4C95.8.074,100.1,0,104.793,0c18.812,0,44.077,1.178,44.077,12.97,0,14.737-13.79,26.684-30.8,26.684Z"/></g><g transform="translate(294.358 72.656)"><path d="M968.928,565.646s206.622,146.313,319.093,38.214,31.169-327.276-157.183-357.723c-82.5-13.334-277.9-26.046-277.9-26.046s25.043,243.813-72.9,291.757c-27.836,13.626-75.464,24.018-119.268,73.646-27.458,31.111-53.494,78.12-71.848,151.583-47.3,189.335-247.993,90.907-247.993,90.907s70.215,95.486,142.046,150.142S687.129,934,697.588,931.558" transform="translate(-335.116 -212.334)" fill="#fff"/><path d="M537.892,1004.171c-20.734,0-40.564-5.035-57.5-17.921-71.832-54.656-140.6-147.677-143.49-151.61l8.992-10.755c.94.462,95.146,45.763,166.144,12.728,35.258-16.406,59.371-49.682,71.669-98.9,16.51-66.084,41.218-118.1,73.439-154.608,35.493-40.213,73.622-55.569,101.461-66.782,7.343-2.958,14.28-5.75,20.044-8.572C871,462.54,847.786,225.6,847.541,223.21l-.872-8.493,8.519.554c1.957.127,196.692,12.888,278.587,26.124,49.737,8.04,95.393,29.691,132.032,62.609a251.3,251.3,0,0,1,72.22,111.748c23.184,74.244,7.025,147.4-43.22,195.693-26.961,25.913-61.279,39.923-102,41.641-32.055,1.357-68.088-4.906-107.11-18.6-65.911-23.135-117.008-59.046-119.151-60.563a7.218,7.218,0,0,1,8.341-11.781c.511.361,51.812,36.391,115.87,58.823,84.294,29.519,149.583,22.817,194.05-19.923,46.216-44.419,60.96-112.077,39.445-180.985-21.183-67.84-82.95-146.656-192.779-164.41-71.538-11.562-230.61-22.806-268.85-25.408,1.461,19.226,4.241,68.452-.436,120.779-8.178,91.533-34.149,148.627-77.19,169.7-6.234,3.051-13.406,5.94-21,9C736.02,540.974,701.2,555,667.967,592.649,637.292,627.4,613.655,677.386,597.711,741.2,584.3,794.889,557.5,831.4,518.069,849.723c-54.345,25.254-118.5,9.62-153.234-2.587,24.816,31.1,74.456,89.7,124.3,127.622,56.07,42.662,154.954-16.689,192.18-39.032,10.325-6.2,13.719-8.187,16.42-8.818a7.217,7.217,0,0,1,3.548,13.988c-1.579.628-7.151,3.971-12.54,7.205C659.7,965.534,595.326,1004.171,537.892,1004.171Z" transform="translate(-336.902 -214.717)"/></g><g transform="matrix(-0.891, -0.454, 0.454, -0.891, 845.949, 718.821)"><path d="M136.977,39.832h0c-3.467,0-6.852-.022-9.837-.042-2.592-.017-5.04-.033-7.214-.033H35.164a56,56,0,0,1-14.613-1.879A41.216,41.216,0,0,1,9.083,32.957a23.4,23.4,0,0,1-6.951-6.514A11.836,11.836,0,0,1,0,19.877a11.835,11.835,0,0,1,2.132-6.565A23.4,23.4,0,0,1,9.083,6.8,41.173,41.173,0,0,1,20.551,1.878,55.856,55.856,0,0,1,34.756,0l119.65,13.95.417.049h.419a56,56,0,0,1,14.613,1.879A41.216,41.216,0,0,1,181.322,20.8a23.4,23.4,0,0,1,6.951,6.514,12.021,12.021,0,0,1,2.122,6.08,13.817,13.817,0,0,1-4.856,2.321,73.389,73.389,0,0,1-13.375,2.608C160.7,39.675,146.594,39.832,136.977,39.832Z" transform="translate(7.217 7.218)" fill="#fff"/><path d="M41.59,14.44C24.722,14.684,14.434,22.7,14.434,27.1c0,4.464,10.61,12.661,27.947,12.661h84.761l7.259.033,9.791.042c25.525,0,37.912-1.547,43.912-2.994-4.005-4.079-13.051-8.406-25.645-8.406h-.839l-.833-.1L41.59,14.44M42.381,0,162.459,14c23.406,0,42.381,12.132,42.381,27.1,0,11.976-34.763,13.171-60.647,13.171-6.462,0-12.374-.075-17.049-.075H42.381C18.975,54.192,0,42.061,0,27.1S18.975,0,42.381,0Z"/></g><path d="M11.08,61.832A30.927,30.927,0,1,1,39.99,81.716,30.955,30.955,0,0,1,11.08,61.832ZM146.06,51.064a30.928,30.928,0,1,1,28.911,19.885A30.956,30.956,0,0,1,146.06,51.064Z" transform="translate(1015.392 211.023)"/><g transform="translate(743.348 731.509)"><path d="M731.644,676.178s57.521,79.217,65.742,135.9-93.08,123-111.771,123.887c0,0-26.75-27.142-32.29-61.177,16.551-15.851,39.813-34.323,55.823-46.612,4.909-3.769-6.86-15.375-12.718-28.328a77.955,77.955,0,0,1-6.107-27.488" transform="translate(-645.591 -668.96)" fill="#fff"/><path d="M685.113,945.546l-2.262-2.3c-1.159-1.175-28.432-29.193-34.275-65.084l-.609-3.748,2.741-2.624c15.825-15.153,37.7-32.687,54.078-45.318-1-1.953-2.844-4.8-4.293-7.05a111.884,111.884,0,0,1-8.263-14.385l-.071-.16a84.893,84.893,0,0,1-6.673-30.031,7.218,7.218,0,0,1,14.425-.536,70.516,70.516,0,0,0,5.506,24.861,101.508,101.508,0,0,0,7.2,12.426c5.2,8.06,11.671,18.091,3.294,24.52-15.364,11.792-36.515,28.6-52.4,43.423,5.078,23.695,20.874,43.657,27.08,50.784,13.151-4.2,53.416-28.293,80.427-61.041,11.413-13.836,24.424-34.431,21.592-53.954-7.874-54.295-63.875-131.921-64.441-132.7a7.217,7.217,0,1,1,11.678-8.481c2.392,3.294,58.665,81.322,67.044,139.107,2.882,19.873-5.443,41.812-24.743,65.211-29.082,35.261-78.32,66.186-93.829,66.92Z" transform="translate(-647.967 -671.177)"/></g><g transform="translate(742.613 957.732) rotate(4.992)"><path d="M84.221,48.752h0c-2.171,0-4.209-.025-6.181-.048-1.658-.02-3.225-.039-4.63-.039H19.658c-5.029,0-9.827-2.382-13.509-6.7a25.065,25.065,0,0,1-4.464-7.8,29.573,29.573,0,0,1,0-19.676,25.037,25.037,0,0,1,4.464-7.8A17.915,17.915,0,0,1,18.963,0L94.288,16.13l.748.16H95.8c5.029,0,9.827,2.382,13.509,6.7a25.066,25.066,0,0,1,4.464,7.8,28.919,28.919,0,0,1,1.684,9.838,3.519,3.519,0,0,1-1.313,2.917c-.905.816-2.761,2-6.466,3.027C100.618,48.526,90.909,48.752,84.221,48.752Z" transform="translate(7.217 7.231)" fill="#fff"/><path d="M25.711,14.512c-6.222.839-11.277,8.3-11.277,17.045,0,9.281,5.7,17.123,12.441,17.123H80.622l4.717.039,6.1.048c15.5,0,21.652-1.686,23.952-2.7-.677-8.473-6.067-15.323-12.368-15.323H101.49L100,30.418,25.711,14.512M26.875,0l76.143,16.3c14.842,0,26.875,14.128,26.875,31.557,0,13.946-22.044,15.339-38.458,15.339-4.1,0-7.846-.087-10.811-.087H26.875C12.032,63.114,0,48.985,0,31.557S12.032,0,26.875,0Z"/></g><g transform="translate(881.237 547.051)"><path d="M775.253,548.382s99.825,90.557,47.84,136.516c-25.219-3.894-58.51-57.5-74.595-81.653" transform="translate(-741.281 -541.166)" fill="#fff"/><path d="M827.553,694.764l-3.344-.517c-24.294-3.751-50.5-40.766-75.253-78.358-1.521-2.309-2.942-4.467-4.246-6.429a7.217,7.217,0,1,1,12.013-8c1.319,1.98,2.754,4.158,4.29,6.491,13.968,21.208,42.242,64.143,62.183,71.2a34.618,34.618,0,0,0,9.9-24.756c.274-42.847-59.863-97.9-60.471-98.451a7.217,7.217,0,1,1,9.7-10.691c2.676,2.428,65.523,60.008,65.207,109.235-.1,15.1-5.963,27.891-17.436,38.033Z" transform="translate(-743.498 -543.383)"/></g><path d="M709.118,812.152a7.219,7.219,0,0,1-6.132-11.013q3.191-5.162,6.335-10.179c23.449-37.548,43.7-69.976,47.932-127.233,4.856-65.806,37.3-110.593,63.661-136.577,28.516-28.106,55.663-40.587,56.8-41.105a7.217,7.217,0,0,1,5.967,13.144h0c-.261.118-26.312,12.162-53.026,38.622-35.538,35.2-55.393,77.925-59.013,126.978-4.492,60.813-26.638,96.275-50.084,133.816q-3.122,5-6.3,10.121A7.208,7.208,0,0,1,709.118,812.152Z" transform="translate(119.298 -22.041)"/><g transform="matrix(0.94, 0.342, -0.342, 0.94, 670.109, 595.861)"><path d="M0,0H33.042V218.9H0Z" transform="translate(172.519 421.752)" fill="#fff"/><g transform="translate(133.638 610.033)"><path d="M17.321,0H79.052A17.321,17.321,0,0,1,96.373,17.321h0V35.529A5.774,5.774,0,0,1,90.6,41.3H5.774A5.774,5.774,0,0,1,0,35.529V17.321A17.32,17.32,0,0,1,17.321,0Z" transform="translate(7.216 7.217)" fill="#fff"/><path d="M102.259,54.954a12.943,12.943,0,0,1-4.444.782H12.991A13.007,13.007,0,0,1,0,42.746V24.538A24.523,24.523,0,0,1,24.539,0H86.27a24.537,24.537,0,0,1,24.538,24.536V42.745A13.039,13.039,0,0,1,102.259,54.954ZM14.433,41.3H96.371V24.536a10.1,10.1,0,0,0-10.1-10.1H24.536a10.089,10.089,0,0,0-10.1,10.1Z"/></g><g transform="translate(148.781 39.926)"><path d="M12.991,0h40.1A12.99,12.99,0,0,1,66.083,12.991V389.018a12.99,12.99,0,0,1-12.991,12.991h-40.1A12.99,12.99,0,0,1,0,389.018V12.991A12.99,12.99,0,0,1,12.991,0Z" transform="translate(7.217 7.217)" fill="#fff"/><path d="M67.22,415.228a20.138,20.138,0,0,1-6.912,1.215h-40.1A20.208,20.208,0,0,1,0,396.234V20.208A20.2,20.2,0,0,1,20.206,0h40.1A20.233,20.233,0,0,1,80.517,20.208V396.237A20.269,20.269,0,0,1,67.22,415.228ZM18.233,14.779a5.8,5.8,0,0,0-3.8,5.429V396.235a5.776,5.776,0,0,0,5.775,5.774h40.1a5.763,5.763,0,0,0,5.774-5.774V20.208a5.782,5.782,0,0,0-5.775-5.774h-40.1A5.762,5.762,0,0,0,18.233,14.779Z"/></g><g transform="translate(133.637 0)"><path d="M7.217,0H89.156a7.218,7.218,0,0,1,7.217,7.217v31a7.218,7.218,0,0,1-7.217,7.217H7.217A7.218,7.218,0,0,1,0,38.215v-31A7.218,7.218,0,0,1,7.217,0Z" transform="translate(7.217 7.217)" fill="#fff"/><path d="M101.309,59a14.408,14.408,0,0,1-4.936.869H14.434A14.434,14.434,0,0,1,0,45.431v-31A14.427,14.427,0,0,1,14.434,0H96.373a14.434,14.434,0,0,1,14.434,14.434v31A14.482,14.482,0,0,1,101.309,59ZM14.434,14.434v31H96.367l.006-31Z"/></g><g transform="translate(0 301.839)"><path d="M50.821,66.785c-10.371,0-25.453-.3-36.654-2.943C9.036,62.633,5.2,61.072,2.76,59.2S0,55.672,0,54.288a33.306,33.306,0,0,1,33.34-33.34h.652l.642-.117L148.872,0a33.327,33.327,0,0,1,22.953,56.909,33.216,33.216,0,0,1-23.575,9.765H67.137c-2.093,0-4.443.025-6.93.049C57.356,66.753,54.124,66.785,50.821,66.785Z" transform="translate(7.217 7.223)" fill="#fff"/><path d="M156.632,14.46,43.146,35.154l-1.285.234h-1.3c-14.4,0-26.123,11.719-26.538,25,.917,1.068,7.347,6.4,44.019,6.4l9.313-.062,7-.051h81.113a26.122,26.122,0,0,0,1.165-52.218M155.467,0a40.557,40.557,0,1,1,0,81.113H74.354c-4.475,0-10.133.111-16.316.111C33.267,81.224,0,79.436,0,61.51A40.557,40.557,0,0,1,40.557,20.954Z"/></g></g><g transform="translate(610.349 723.679)"><path d="M690.948,688.342c9.239,28.252-5.586,105.332-11.579,114.987-24.315,39.178-44.728,73.847-64.582,83.417,0,0-34.263-5.061-50.956-32.706,19.837-35.873,7.151-52.876,28-91.391,2.408-.937-5.359-3.75-16.719-28.421-13.631-29.6-14.292-63.473-14.292-63.473" transform="translate(-553.607 -663.535)" fill="#fff"/><path d="M618.143,896.425l-2.193-.325c-1.537-.227-37.839-5.906-56.08-36.115l-2.156-3.572,2.019-3.652c9.168-16.58,10.9-28.826,12.729-41.789,1.9-13.416,3.851-27.264,13.421-46.075-3.249-4.026-8.637-11.391-15.105-25.435-14.1-30.623-14.925-64.908-14.952-66.352a7.217,7.217,0,1,1,14.431-.283c.007.32.824,32.782,13.631,60.6,6.752,14.662,12,20.96,14.528,23.988,1.817,2.18,4.081,4.892,3.051,8.883a7.543,7.543,0,0,1-1.689,3.162c-9.375,17.706-11.149,30.261-13.024,43.534-1.8,12.735-3.655,25.877-12.327,42.873,12.826,17.9,34.516,23.984,41.45,25.524,16.136-9.44,34.829-39.659,54.576-71.577l5-8.074c5.229-8.548,19.336-82.992,10.85-108.937a7.217,7.217,0,0,1,13.72-4.488c10.114,30.925-5.5,110.072-12.3,121.036l-4.991,8.057c-23.585,38.123-42.215,68.234-62.59,78.055Z" transform="translate(-555.824 -665.753)"/></g><g transform="translate(717.78 499.021)"><path d="M708.763,515.108s17.858,138.524-14.74,147.5-58.768-140.414-58.768-140.414" transform="translate(-628.035 -507.89)" fill="#fff"/><path d="M693.423,672.426a19.8,19.8,0,0,1-10.638-3.274c-13.367-8.463-25.86-34.688-38.189-80.176-8.779-32.39-14.18-63.016-14.233-63.32a7.217,7.217,0,1,1,14.218-2.491c7.982,45.541,27.51,122.136,45.926,133.793,2.156,1.364,3.321,1.044,3.818.906,2.5-.69,14.964-7.3,14.294-69.969a684.315,684.315,0,0,0-4.8-69.65,7.217,7.217,0,0,1,14.316-1.845,685.8,685.8,0,0,1,4.913,71.227c.573,52.578-7.338,79.318-24.9,84.151A17.617,17.617,0,0,1,693.423,672.426Z" transform="translate(-630.253 -510.107)"/></g></g></g></svg>